HIERARCHY
ROOT Hips
{
  OFFSET 265.287 66.7526 -254.649
  CHANNELS 6 Xposition Yposition Zposition Zrotation Xrotation Yrotation
  JOINT LeftUpLeg
  {
    OFFSET 8.64259 1.95398 -2.38835
    CHANNELS 3 Zrotation Xrotation Yrotation
    JOINT LeftLeg
    {
      OFFSET 43.7702 0 0
      CHANNELS 3 Zrotation Xrotation Yrotation
      JOINT LeftFoot
      {
        OFFSET 40.6238 0 0
        CHANNELS 3 Zrotation Xrotation Yrotation
        JOINT LeftToeBase
        {
          OFFSET 12.7242 0 0
          CHANNELS 3 Zrotation Xrotation Yrotation
          End Site
          {
            OFFSET 0 0 0
          }
        }
      }
    }
  }
  JOINT RightUpLeg
  {
    OFFSET -8.2249 1.95398 -2.59336
    CHANNELS 3 Zrotation Xrotation Yrotation
    JOINT RightLeg
    {
      OFFSET 43.5653 0 0
      CHANNELS 3 Zrotation Xrotation Yrotation
      JOINT RightFoot
      {
        OFFSET 40.6238 0 0
        CHANNELS 3 Zrotation Xrotation Yrotation
        JOINT RightToeBase
        {
          OFFSET 12.7242 0 0
          CHANNELS 3 Zrotation Xrotation Yrotation
          End Site
          {
            OFFSET 0 0 0
          }
        }
      }
    }
  }
  JOINT Spine
  {
    OFFSET 0.165834 0.87714 6.61349
    CHANNELS 3 Zrotation Xrotation Yrotation
    JOINT Spine1
    {
      OFFSET 7.38963 1.71661e-005 0
      CHANNELS 3 Zrotation Xrotation Yrotation
      JOINT Spine2
      {
        OFFSET 11.9445 1.14441e-005 0
        CHANNELS 3 Zrotation Xrotation Yrotation
        JOINT Spine3
        {
          OFFSET 14.7254 4.19617e-005 0
          CHANNELS 3 Zrotation Xrotation Yrotation
          JOINT Spine4
          {
            OFFSET 10.9679 0 0
            CHANNELS 3 Zrotation Xrotation Yrotation
            JOINT RightShoulder
            {
              OFFSET 2.46616 -1.6653 3.69651
              CHANNELS 3 Zrotation Xrotation Yrotation
              JOINT RightArm
              {
                OFFSET 13.0012 0 0
                CHANNELS 3 Zrotation Xrotation Yrotation
                JOINT RightForeArm
                {
                  OFFSET 28.7848 1.52588e-005 0
                  CHANNELS 3 Zrotation Xrotation Yrotation
                  JOINT RightHand
                  {
                    OFFSET 26.5688 1.52588e-005 0
                    CHANNELS 3 Zrotation Xrotation Yrotation
                    End Site
                    {
                      OFFSET 0 0 0
                    }
                  }
                }
              }
            }
            JOINT LeftShoulder
            {
              OFFSET 2.38034 -1.29275 -3.7523
              CHANNELS 3 Zrotation Xrotation Yrotation
              JOINT LeftArm
              {
                OFFSET 16.3182 6.10351e-005 0
                CHANNELS 3 Zrotation Xrotation Yrotation
                JOINT LeftForeArm
                {
                  OFFSET 27.0901 0 0
                  CHANNELS 3 Zrotation Xrotation Yrotation
                  JOINT LeftHand
                  {
                    OFFSET 24.5451 1.52588e-005 0
                    CHANNELS 3 Zrotation Xrotation Yrotation
                    End Site
                    {
                      OFFSET 0 0 0
                    }
                  }
                }
              }
            }
            JOINT Neck
            {
              OFFSET 5.0226 -0.0266342 0
              CHANNELS 3 Zrotation Xrotation Yrotation
              JOINT Head
              {
                OFFSET 6.69364 2.86102e-005 0
                CHANNELS 3 Zrotation Xrotation Yrotation
                End Site
                {
                  OFFSET 0 0 0
                }
              }
            }
          }
        }
      }
    }
  }
}
MOTION
Frames:	15
Frame Time:	0.0416667
97.384 96.1991 -58.7861 -107.261 -64.9686 -106.027 -179.176 17.8577 89.2575 -55.5456 11.0108 2.65412 55.6007 1.38952 7.93975 49.9262 -6.25862 2.95263 175.875 5.97015 90.7677 -31.8302 -3.99825 -0.205148 68.6896 2.62037 12.8395 29.2191 -0.118587 0.494363 -0.0635181 7.71345 -90.3936 11.4453 -0.310063 -0.752475 -0.225791 -0.342904 -0.738104 -22.7592 -0.0696064 -0.810874 -2.74658 -0.0696009 -0.810876 102.389 -50.1447 -81.8174 28.5594 -3.81459 -4.06238 -5.64656 -20.4901 -22.2356 -8.65233 -0.463544 1.11394 -82.7657 -50.8263 89.4717 -30.4638 6.60608 -5.47467 10.0507 31.4215 -12.5695 -2.29244 -0.0885802 -1.58715 -5.20946 -3.72376 -5.84414 -17.5069 -3.64029 3.77785 
93.2418 96.318 -52.2344 -104.415 -61.997 -103.289 -178.757 17.4912 89.0557 -28.6984 9.54443 2.5326 53.164 0.675718 8.35293 49.5787 -6.11972 3.75599 176.106 0.35252 90.1381 -29.2836 -4.76973 -0.906436 69.9666 1.27506 13.694 32.3393 -0.596326 1.05104 0.0646587 7.75315 -90.354 11.3671 -0.036361 -0.701069 -0.304075 -0.0671955 -0.698793 -22.8378 0.176019 -0.679589 -2.82517 0.175998 -0.679587 102.408 -49.7474 -81.7867 27.4225 -6.72541 -7.43422 -3.03495 -13.1358 -24.7185 -13.7684 -0.480474 -1.19135 -82.8204 -51.8447 89.4792 -31.2416 3.67769 1.53209 10.9534 31.5481 -13.0504 -2.42289 -0.0894453 0.0440847 -4.94429 -3.71292 -5.55419 -16.4997 -3.63155 3.98835 
89.1691 95.7846 -45.4935 -99.9764 -58.6724 -97.7133 -178.804 17.0849 90.4512 -7.13744 18.1678 4.47293 53.9113 -0.151418 5.70582 43.4729 -4.3793 5.18944 176.203 -3.16556 92.3063 -28.2813 -7.58374 -1.15 69.0178 0.471089 14.4806 38.0458 -1.40713 1.54142 0.219568 7.70288 -90.4601 11.4676 0.221942 -0.939095 -0.203647 0.180381 -0.947954 -22.7366 0.493898 -0.828995 -2.72398 0.493895 -0.828997 102.319 -49.9034 -81.9265 25.8309 -6.5754 -10.037 -5.73184 -15.3824 -28.8033 -13.0869 -0.570783 -0.153476 -82.9307 -52.507 89.373 -31.7216 2.23708 4.19901 11.0017 31.4517 -12.8058 -7.01646 -0.201193 -1.56126 -5.75885 -3.59003 -5.98614 -15.2043 -3.50559 4.36391 
84.6672 94.7791 -37.4698 -98.1412 -53.9865 -95.8484 -179.355 18.0475 90.6834 -9.448 23.3477 6.56305 50.2559 -2.56165 4.20996 45.5084 -4.95878 4.42943 176.375 -6.4214 90.4617 -31.2181 -12.5497 -3.24837 65.5884 1.19617 16.0406 46.7169 -2.46893 2.46408 0.404406 7.6797 -90.3267 11.5153 0.651741 -0.719435 -0.155715 0.619438 -0.747427 -22.6912 0.837828 -0.490297 -2.67857 0.83783 -0.490306 101.264 -50.2684 -83.5672 26.2214 -6.00206 -8.4576 -6.55556 -16.0056 -30.1463 -14.5002 -0.656619 0.0759381 -82.0525 -52.5261 90.668 -31.106 2.66193 3.89398 11.3725 31.3968 -13.743 -8.10829 -0.23279 -1.5362 -6.59613 -3.86297 -6.45243 -15.9448 -3.81217 4.33497 
79.9061 93.8858 -28.9557 -100.124 -51.517 -100.136 179.459 18.6791 87.9495 -23.237 22.7824 5.43603 47.712 -3.65895 9.92184 43.4608 -4.51912 0.357362 174.834 -7.93314 85.1733 -38.4727 -13.1015 -4.41375 54.7167 4.80769 21.5172 51.7907 -2.55261 8.51059 0.251373 7.86337 -89.8385 11.1465 0.575448 0.265392 -0.524364 0.586588 0.239798 -23.0601 0.469082 0.426073 -3.04739 0.469086 0.426062 101.836 -50.2721 -82.6779 28.692 -5.06753 -6.67718 -6.24748 -18.4261 -26.1065 -11.9214 -0.556544 0.252758 -81.974 -52.3566 90.7718 -28.8467 3.49634 -0.0501856 11.0318 31.2873 -13.3094 -4.75962 -0.159098 -1.07928 -7.43763 -4.54971 -6.2071 -14.6024 -4.42708 3.39906 
75.6265 93.3028 -22.0237 -99.2539 -47.87 -100.937 -177.42 17.5871 86.502 -32.2227 20.7968 3.24414 56.9668 0.0751178 15.2658 41.1596 -3.8371 -2.78208 175.597 2.47997 82.4864 -59.0914 -11.5277 -4.69948 42.0435 8.25121 19.1303 31.219 -0.449985 0.984738 0.0593849 7.92353 -89.4875 11.0231 0.355675 0.985635 -0.648229 0.398685 0.969018 -23.1802 0.0430204 1.04695 -3.16754 0.0430075 1.04695 101.568 -50.224 -83.0954 31.1557 -4.09156 -5.92472 -5.68458 -24.2229 -20.0333 -8.68397 -0.452293 0.992362 -82.9255 -52.3186 89.3644 -24.8729 4.94525 -6.48196 9.60666 28.0232 -12.5643 -1.55377 -0.0678881 -0.282845 -7.44815 -5.05497 -3.48016 -13.7526 -4.85506 0.525857 
71.0079 94.0865 -16.0207 -99.5523 -44.8169 -100.224 -175.895 11.8307 87.5125 -32.991 18.2543 2.6931 62.1876 2.53115 15.7348 41.2363 -3.85783 -2.30806 175.739 14.4087 84.9605 -71.2692 -8.67449 -3.62193 45.2513 6.84688 17.1494 27.1778 0.687382 -3.56352 -0.37298 8.07229 -89.5294 10.7325 -0.525668 0.98449 -0.938715 -0.481819 1.00666 -23.4728 -0.797255 0.781002 -3.46019 -0.797245 0.781001 101.696 -50.3801 -82.894 32.4532 -4.04717 -5.20672 -5.57063 -26.6353 -18.7799 -6.60079 -0.431405 2.55159 -82.9234 -51.8251 89.3239 -20.4994 5.9879 -15.372 8.45416 24.6862 -12.214 0.664696 0.0269431 -0.105568 -6.96323 -4.82266 -2.08358 -12.8598 -4.74041 0.892553 
66.28 95.1393 -10.5484 -97.8846 -42.6162 -97.4557 -174.329 6.19618 89.1381 -29.7467 16.2438 2.14031 64.7137 3.62588 14.9168 41.6151 -3.97595 -1.25236 173.174 21.7089 88.3872 -63.8785 -11.051 -0.871985 53.5242 4.05614 15.7251 33.3965 -0.504029 -2.34176 -0.815393 7.95428 -89.7243 10.9702 -1.49563 0.690874 -0.700169 -1.46379 0.756037 -23.2418 -1.63412 0.209331 -3.22918 -1.63412 0.209333 101.778 -50.6978 -82.7656 32.7488 -4.32716 -2.20693 -6.19857 -25.7852 -20.5776 -7.49256 -0.417315 1.40926 -82.6898 -50.1586 89.5282 -17.3319 6.20301 -22.9546 9.24978 21.4665 -15.4505 2.91697 0.158318 1.03515 -5.89723 -4.46678 -1.94651 -12.2409 -4.35842 0.81492 
61.4369 95.9 -5.74626 -95.446 -39.145 -95.4103 -173.374 0.97322 89.5246 -25.2822 14.1531 1.518 63.6825 2.74803 12.7032 44.4885 -4.75422 2.51275 171.974 22.483 90.0666 -40.493 -3.79912 2.53368 57.4426 3.44859 18.6455 35.892 -1.01506 -0.28168 -1.01157 7.76314 -89.8365 11.3533 -1.93674 0.51969 -0.316311 -1.91195 0.604442 -22.8631 -2.00333 -0.0866355 -2.85043 -2.00333 -0.0866381 101.833 -50.9382 -82.679 33.3803 -2.76507 0.258322 -6.04794 -23.2647 -20.7051 -6.67747 -0.364038 1.26313 -82.6158 -49.776 89.6067 -13.1182 6.26215 -28.9534 10.1871 17.8762 -20.6109 5.18476 0.207737 0.14392 -4.23691 -4.11852 -1.71525 -9.82916 -3.99814 1.19735 
56.0807 96.1187 -1.28344 -93.3508 -35.7218 -95.2762 -173.421 -5.50132 88.1431 -18.778 13.7338 0.989982 60.7978 1.90191 11.1934 48.6789 -5.77046 4.69697 174.832 18.8125 89.3488 -12.6351 8.53619 2.9134 56.3796 5.07058 19.1446 34.598 -0.771502 -1.41172 -1.03556 7.56952 -89.8343 11.7404 -1.9817 0.539398 0.0708331 -1.95603 0.62611 -22.4764 -2.05216 -0.0813697 -2.46377 -2.05217 -0.0813792 102.096 -50.8213 -82.2734 34.07 -0.245556 1.23437 -6.03006 -24.3308 -18.1296 -6.46333 -0.367286 1.57404 -82.5184 -49.3365 89.7171 -11.4777 6.13495 -33.6739 11.5672 16.6455 -24.8565 5.38853 0.122692 -1.30734 -1.54576 -4.08375 -1.67061 -8.6053 -3.9411 2.12668 
49.5126 95.372 3.43799 -92.8403 -34.5589 -95.3055 -174.185 -8.57957 88.0308 -21.4984 15.9101 1.7209 57.5359 0.827692 9.25319 57.3683 -7.44166 8.67015 177.177 19.2867 88.998 -10.3286 13.598 0.44293 56.0563 6.87872 18.1587 31.8885 0.0963785 -4.48712 -1.09098 7.49585 -90.0328 11.8868 -2.18494 0.165443 0.217667 -2.17551 0.261484 -22.3319 -2.13363 -0.499187 -2.31921 -2.13359 -0.499184 101.926 -50.6969 -82.5368 33.8715 1.72921 1.92152 -5.15947 -24.4749 -15.0334 -6.94163 -0.45184 2.60136 -83.042 -49.9668 88.9781 -12.2516 6.91773 -35.3618 15.7105 19.7374 -30.2615 4.29566 0.0542828 -1.93234 1.7547 -4.22394 -0.852372 -8.35837 -4.18161 2.93411 
41.9717 94.5728 7.91761 -93.291 -31.8458 -92.4484 -173.598 -3.77059 93.8826 -36.9233 9.25213 2.2005 43.8734 -3.56447 -3.09926 62.2339 -10.2375 0.55307 176.187 21.2206 92.1541 -24.5415 5.30797 2.11616 56.7515 7.27085 12.0037 27.8279 0.677238 -4.19474 -0.857248 7.55081 -90.729 11.7652 -2.04743 -1.23625 0.0954267 -2.09985 -1.14492 -22.444 -1.58125 -1.79442 -2.43132 -1.58126 -1.79443 101.679 -50.1275 -82.9233 32.0123 2.90402 -0.132873 -3.10458 -24.6194 -9.79019 -8.45414 -0.617112 3.47616 -83.1391 -51.3193 88.9569 -15.1376 11.2992 -31.9761 17.7479 21.831 -33.3513 3.46219 0.0441936 -1.65693 3.38929 -3.84522 0.475276 -8.37849 -4.0375 3.72411 
34.4223 94.271 11.5911 -94.2382 -27.8735 -92.4528 -174.946 6.48674 92.0925 -57.153 6.42943 1.85926 40.0341 -4.61372 1.21087 55.9025 -8.37326 -0.0721983 174.616 18.486 92.8633 -32.7014 2.40116 3.23004 65.0794 4.80095 11.2267 26.3769 0.540452 -1.38438 -0.513768 7.59668 -90.8522 11.6686 -1.42146 -1.55024 -0.00236579 -1.48834 -1.48619 -22.533 -0.889994 -1.90569 -2.52038 -0.889963 -1.90568 101.697 -49.8563 -82.8982 31.4999 2.46011 -0.970479 -2.91681 -21.0085 -11.0698 -11.3183 -0.792398 3.06509 -83.2281 -51.6539 88.8557 -17.0265 15.809 -26.4749 18.2591 24.9904 -33.7783 -2.04662 -0.0879629 -3.46835 4.28543 -4.42824 -1.66689 -11.0263 -4.32871 3.801 
26.6341 94.5828 14.3407 -95.6947 -20.1997 -93.7689 -174.961 14.4614 90.3658 -63.3403 4.36755 1.14136 48.1192 -1.37662 6.29215 48.8181 -5.98288 2.3455 176.276 12.6551 93.2689 -34.9409 -2.60201 1.10471 69.7209 1.56754 9.87741 25.8198 0.726635 -2.0808 -0.253563 7.90926 -90.6092 11.0514 -0.787267 -1.13739 -0.619733 -0.836553 -1.10166 -23.1517 -0.40904 -1.32137 -3.13905 -0.409084 -1.3214 101.481 -50.5295 -83.2267 29.3465 -1.03479 -6.93189 -3.17551 -21.4317 -14.672 -12.4176 -0.865648 3.01717 -83.0298 -51.9855 89.1805 -21.3264 13.7781 -18.4334 15.9907 27.3783 -27.863 -0.553276 -0.054777 -2.89936 3.7779 -3.47988 -3.67884 -10.8673 -3.1773 5.73928 
18.9007 95.2296 16.8585 -95.429 -13.3866 -95.0133 -177.035 18.4726 87.6475 -51.2357 4.68371 1.40904 55.987 2.09854 9.44302 47.8553 -5.67688 2.82911 176.855 6.11581 91.2372 -32.9105 -5.87369 -1.04158 72.863 -0.0176537 11.8575 25.5936 0.5467 -0.574163 -0.0642497 7.87771 -90.2664 11.1173 -0.251425 -0.507053 -0.553724 -0.273496 -0.495505 -23.0881 -0.0874042 -0.559168 -3.07544 -0.0874131 -0.559174 101.654 -50.0792 -82.9632 29.3154 -3.9436 -9.26619 -5.43839 -18.3601 -23.1993 -11.4397 -0.635591 1.26009 -82.4289 -52.6844 90.1259 -25.7018 10.1434 -10.1227 12.3915 30.5272 -19.1207 -0.391042 -0.0213621 0.436868 2.9964 -2.11648 -4.35556 -11.3348 -1.88868 7.51783 
